<?xml version="1.0" standalone="no"?><!DOCTYPE svg PUBLIC "-//W3C//DTD SVG 1.1//EN" "http://www.w3.org/Graphics/SVG/1.1/DTD/svg11.dtd"><svg t="1572858061916" class="icon" viewBox="0 0 1024 1024" version="1.1" xmlns="http://www.w3.org/2000/svg" p-id="11561" xmlns:xlink="http://www.w3.org/1999/xlink" width="20" height="20"><defs><style type="text/css"></style></defs><path d="M928.687158 816.316632l64.053895 56.966736-53.733053 60.416-55.457684-49.313684a202.105263 202.105263 0 1 1 45.136842-68.042105zM134.736842 134.736842v242.526316h242.526316V134.736842H134.736842zM53.894737 53.894737h404.210526v404.210526H53.894737V53.894737z m80.842105 565.894737v242.526315h242.526316v-242.526315H134.736842z m-80.842105-80.842106h404.210526v404.210527H53.894737V538.947368zM619.789474 134.736842v242.526316h242.526315V134.736842h-242.526315z m-80.842106-80.842105h404.210527v404.210526H538.947368V53.894737z m202.105264 808.421052a121.263158 121.263158 0 1 0 0-242.526315 121.263158 121.263158 0 0 0 0 242.526315z" fill="#333333" p-id="11562"></path></svg>