<?xml version="1.0" standalone="no"?><!DOCTYPE svg PUBLIC "-//W3C//DTD SVG 1.1//EN" "http://www.w3.org/Graphics/SVG/1.1/DTD/svg11.dtd"><svg t="1572858135822" class="icon" viewBox="0 0 1024 1024" version="1.1" xmlns="http://www.w3.org/2000/svg" p-id="12322" xmlns:xlink="http://www.w3.org/1999/xlink" width="20" height="20"><defs><style type="text/css"></style></defs><path d="M568 362.7H344c-20.6 0-37.3 16.7-37.3 37.3s16.7 37.3 37.3 37.3h224c20.6 0 37.3-16.7 37.3-37.3s-16.7-37.3-37.3-37.3zM680.4 586.7H343.6c-20.4 0-36.9 16.5-36.9 36.9v0.8c0 20.4 16.5 36.9 36.9 36.9h336.8c20.4 0 36.9-16.5 36.9-36.9v-0.8c0-20.4-16.5-36.9-36.9-36.9z" p-id="12323"></path><path d="M810.7 549.3v336H213.3V138.7h261.3c20.6 0 37.3-16.7 37.3-37.3 0-20.6-16.7-37.3-37.3-37.3H213.3c-41.2 0-74.7 33.4-74.7 74.7v746.7c0 41.2 33.4 74.7 74.7 74.7h597.3c41.2 0 74.7-33.4 74.7-74.7v-336c0-20.6-16.7-37.3-37.3-37.3-20.6-0.2-37.3 16.5-37.3 37.1z" p-id="12324"></path><path d="M848 176h-74.7v-74.7c0-20.6-16.7-37.3-37.3-37.3s-37.3 16.7-37.3 37.3V176H624c-20.6 0-37.3 16.7-37.3 37.3 0 20.6 16.7 37.3 37.3 37.3h74.7v74.7c0 20.6 16.7 37.3 37.3 37.3s37.3-16.7 37.3-37.3v-74.7H848c20.6 0 37.3-16.7 37.3-37.3 0-20.6-16.7-37.3-37.3-37.3z" p-id="12325"></path></svg>