<?xml version="1.0" standalone="no"?><!DOCTYPE svg PUBLIC "-//W3C//DTD SVG 1.1//EN" "http://www.w3.org/Graphics/SVG/1.1/DTD/svg11.dtd"><svg t="1572858220481" class="icon" viewBox="0 0 1025 1024" version="1.1" xmlns="http://www.w3.org/2000/svg" p-id="13484" xmlns:xlink="http://www.w3.org/1999/xlink" width="20.01953125" height="20"><defs><style type="text/css"></style></defs><path d="M1002.004227 18.262357 244.754295 18.262357c-12.150465 0-21.995773 9.845308-21.995773 21.995773L222.758522 477.542889 21.995773 477.542889c-12.150465 0-21.995773 9.845308-21.995773 21.995773l0 372.822482c0 73.542133 59.828502 133.379433 133.373567 133.379433 1.894569 0 757.249933 0 757.249933 0 73.542133 0 133.379433-59.834367 133.379433-133.379433L1024.002933 40.25813C1024 28.107665 1014.154692 18.262357 1002.004227 18.262357zM43.991545 872.361143 43.991545 521.534434l178.766977 0 0 350.826709c0 49.285195-40.096827 89.387887-89.387887 89.387887C84.088373 961.749031 43.991545 921.646338 43.991545 872.361143zM980.008455 872.361143c0 49.285195-40.096827 89.387887-89.387887 89.387887L232.284158 961.749031c21.406286-23.667451 34.465909-55.036356 34.465909-89.387887L266.750067 62.253902l713.258387 0L980.008455 872.361143z" p-id="13485"></path><path d="M592.486931 272.32233l281.918352 0c12.150465 0 21.995773-9.845308 21.995773-21.995773 0-12.150465-9.845308-21.995773-21.995773-21.995773l-281.918352 0c-12.150465 0-21.995773 9.845308-21.995773 21.995773C570.491159 262.477022 580.339399 272.32233 592.486931 272.32233z" p-id="13486"></path><path d="M592.486931 513.962023l281.918352 0c12.150465 0 21.995773-9.845308 21.995773-21.995773 0-12.150465-9.845308-21.995773-21.995773-21.995773l-281.918352 0c-12.150465 0-21.995773 9.845308-21.995773 21.995773C570.491159 504.116715 580.339399 513.962023 592.486931 513.962023z" p-id="13487"></path><path d="M592.486931 755.607582l281.918352 0c12.150465 0 21.995773-9.845308 21.995773-21.995773 0-12.150465-9.845308-21.995773-21.995773-21.995773l-281.918352 0c-12.150465 0-21.995773 9.845308-21.995773 21.995773C570.491159 745.759341 580.339399 755.607582 592.486931 755.607582z" p-id="13488"></path><path d="M389.512874 297.074906c4.158667 4.399155 9.945022 6.892009 15.992393 6.892009 0.058655 0 0.120244 0 0.184764 0 6.117758-0.05279 11.936373-2.645358 16.06278-7.164756l120.821313-132.329501c8.191226-8.971342 7.554815-22.884402-1.413595-31.075628-8.971342-8.18536-22.884402-7.554815-31.075628 1.413595l-104.852382 114.83553-32.638794-34.562691c-8.346663-8.833502-22.271453-9.226493-31.09909-0.888629-8.833502 8.340797-9.226493 22.259722-0.888629 31.093224L389.512874 297.074906z" p-id="13489"></path><path d="M510.084901 386.952566l-104.852382 114.829665-32.644659-34.556825c-8.340797-8.839368-22.265587-9.232359-31.093224-0.888629-8.833502 8.340797-9.226493 22.259722-0.888629 31.093224l48.906867 51.780982c4.158667 4.399155 9.945022 6.892009 15.992393 6.892009 0.058655 0 0.120244 0 0.184764 0 6.117758-0.05279 11.936373-2.645358 16.06278-7.164756l120.821313-132.323636c8.18536-8.971342 7.554815-22.884402-1.413595-31.075628S518.276127 377.978291 510.084901 386.952566z" p-id="13490"></path><path d="M510.084901 639.091575l-104.852382 114.829665-32.644659-34.556825c-8.340797-8.839368-22.265587-9.235292-31.093224-0.888629-8.833502 8.340797-9.226493 22.259722-0.888629 31.093224l48.906867 51.780982c4.158667 4.399155 9.945022 6.892009 15.992393 6.892009 0.058655 0 0.120244 0 0.184764 0 6.117758-0.05279 11.936373-2.645358 16.06278-7.164756l120.821313-132.323636c8.18536-8.971342 7.554815-22.884402-1.413595-31.075628C532.189187 629.486754 518.276127 630.120232 510.084901 639.091575z" p-id="13491"></path></svg>